<svg width="500" height="500" viewBox="0 0 500 500" fill="none" xmlns="http://www.w3.org/2000/svg">
<rect width="500" height="500" fill="white"/>
<path d="M168.051 267H160.142L172.193 232.091H181.705L193.739 267H185.83L177.085 240.068H176.812L168.051 267ZM167.557 253.278H186.239V259.04H167.557V253.278ZM214.594 255.852V240.818H221.855V267H214.884V262.244H214.611C214.02 263.778 213.037 265.011 211.662 265.943C210.298 266.875 208.634 267.341 206.668 267.341C204.918 267.341 203.378 266.943 202.048 266.148C200.719 265.352 199.679 264.222 198.929 262.756C198.19 261.29 197.815 259.534 197.804 257.489V240.818H205.065V256.193C205.077 257.739 205.491 258.96 206.31 259.858C207.128 260.756 208.224 261.205 209.599 261.205C210.474 261.205 211.293 261.006 212.054 260.608C212.815 260.199 213.429 259.597 213.895 258.801C214.372 258.006 214.605 257.023 214.594 255.852ZM241.589 240.818V246.273H225.822V240.818H241.589ZM229.402 234.545H236.663V258.955C236.663 259.625 236.766 260.148 236.97 260.523C237.175 260.886 237.459 261.142 237.822 261.29C238.197 261.437 238.629 261.511 239.118 261.511C239.459 261.511 239.8 261.483 240.141 261.426C240.482 261.358 240.743 261.307 240.925 261.273L242.067 266.676C241.703 266.79 241.192 266.92 240.533 267.068C239.874 267.227 239.072 267.324 238.129 267.358C236.379 267.426 234.845 267.193 233.527 266.659C232.22 266.125 231.203 265.295 230.476 264.17C229.749 263.045 229.391 261.625 229.402 259.909V234.545ZM257.868 267.511C255.22 267.511 252.93 266.949 250.999 265.824C249.078 264.687 247.595 263.108 246.55 261.085C245.504 259.051 244.982 256.693 244.982 254.011C244.982 251.307 245.504 248.943 246.55 246.92C247.595 244.886 249.078 243.307 250.999 242.182C252.93 241.045 255.22 240.477 257.868 240.477C260.516 240.477 262.8 241.045 264.72 242.182C266.652 243.307 268.141 244.886 269.186 246.92C270.232 248.943 270.754 251.307 270.754 254.011C270.754 256.693 270.232 259.051 269.186 261.085C268.141 263.108 266.652 264.687 264.72 265.824C262.8 266.949 260.516 267.511 257.868 267.511ZM257.902 261.886C259.107 261.886 260.112 261.545 260.919 260.864C261.726 260.17 262.334 259.227 262.743 258.034C263.163 256.841 263.374 255.483 263.374 253.96C263.374 252.438 263.163 251.08 262.743 249.886C262.334 248.693 261.726 247.75 260.919 247.057C260.112 246.364 259.107 246.017 257.902 246.017C256.686 246.017 255.663 246.364 254.834 247.057C254.016 247.75 253.396 248.693 252.976 249.886C252.567 251.08 252.362 252.438 252.362 253.96C252.362 255.483 252.567 256.841 252.976 258.034C253.396 259.227 254.016 260.17 254.834 260.864C255.663 261.545 256.686 261.886 257.902 261.886Z" fill="black"/>
<path d="M275.612 232.091H284.714L294.328 255.545H294.737L304.351 232.091H313.453V267H306.294V244.278H306.004L296.97 266.83H292.095L283.061 244.193H282.771V267H275.612V232.091ZM326.864 267.494C325.193 267.494 323.705 267.205 322.398 266.625C321.091 266.034 320.057 265.165 319.295 264.017C318.545 262.858 318.17 261.415 318.17 259.688C318.17 258.233 318.438 257.011 318.972 256.023C319.506 255.034 320.233 254.239 321.153 253.636C322.074 253.034 323.119 252.58 324.29 252.273C325.472 251.966 326.71 251.75 328.006 251.625C329.528 251.466 330.756 251.318 331.688 251.182C332.619 251.034 333.295 250.818 333.716 250.534C334.136 250.25 334.347 249.83 334.347 249.273V249.17C334.347 248.091 334.006 247.256 333.324 246.665C332.653 246.074 331.699 245.778 330.46 245.778C329.153 245.778 328.114 246.068 327.341 246.648C326.568 247.216 326.057 247.932 325.807 248.795L319.091 248.25C319.432 246.659 320.102 245.284 321.102 244.125C322.102 242.955 323.392 242.057 324.972 241.432C326.563 240.795 328.403 240.477 330.494 240.477C331.949 240.477 333.341 240.648 334.67 240.989C336.011 241.33 337.199 241.858 338.233 242.574C339.278 243.29 340.102 244.21 340.705 245.335C341.307 246.449 341.608 247.784 341.608 249.341V267H334.722V263.369H334.517C334.097 264.188 333.534 264.909 332.83 265.534C332.125 266.148 331.278 266.631 330.29 266.983C329.301 267.324 328.159 267.494 326.864 267.494ZM328.943 262.483C330.011 262.483 330.955 262.273 331.773 261.852C332.591 261.42 333.233 260.841 333.699 260.114C334.165 259.386 334.398 258.562 334.398 257.642V254.864C334.17 255.011 333.858 255.148 333.46 255.273C333.074 255.386 332.636 255.494 332.148 255.597C331.659 255.687 331.17 255.773 330.682 255.852C330.193 255.92 329.75 255.983 329.352 256.04C328.5 256.165 327.756 256.364 327.119 256.636C326.483 256.909 325.989 257.278 325.636 257.744C325.284 258.199 325.108 258.767 325.108 259.449C325.108 260.438 325.466 261.193 326.182 261.716C326.909 262.227 327.83 262.483 328.943 262.483ZM347.241 267V240.818H354.281V245.386H354.554C355.031 243.761 355.832 242.534 356.957 241.705C358.082 240.864 359.378 240.443 360.844 240.443C361.207 240.443 361.599 240.466 362.02 240.511C362.44 240.557 362.81 240.619 363.128 240.699V247.142C362.787 247.04 362.315 246.949 361.713 246.869C361.111 246.79 360.56 246.75 360.06 246.75C358.991 246.75 358.037 246.983 357.196 247.449C356.366 247.903 355.707 248.54 355.219 249.358C354.741 250.176 354.503 251.119 354.503 252.188V267H347.241ZM373.462 259.466L373.479 250.756H374.536L382.922 240.818H391.257L379.99 253.977H378.268L373.462 259.466ZM366.882 267V232.091H374.143V267H366.882ZM383.246 267L375.541 255.597L380.382 250.466L391.751 267H383.246ZM405.673 267.511C402.98 267.511 400.662 266.966 398.719 265.875C396.787 264.773 395.298 263.216 394.253 261.205C393.207 259.182 392.685 256.79 392.685 254.028C392.685 251.335 393.207 248.972 394.253 246.938C395.298 244.903 396.77 243.318 398.668 242.182C400.577 241.045 402.815 240.477 405.384 240.477C407.111 240.477 408.719 240.756 410.207 241.312C411.707 241.858 413.014 242.682 414.128 243.784C415.253 244.886 416.128 246.273 416.753 247.943C417.378 249.602 417.69 251.545 417.69 253.773V255.767H395.582V251.267H410.855C410.855 250.222 410.628 249.295 410.173 248.489C409.719 247.682 409.088 247.051 408.281 246.597C407.486 246.131 406.56 245.898 405.503 245.898C404.401 245.898 403.423 246.153 402.571 246.665C401.73 247.165 401.071 247.841 400.594 248.693C400.116 249.534 399.872 250.472 399.861 251.506V255.784C399.861 257.08 400.099 258.199 400.577 259.142C401.065 260.085 401.753 260.812 402.639 261.324C403.526 261.835 404.577 262.091 405.793 262.091C406.599 262.091 407.338 261.977 408.009 261.75C408.679 261.523 409.253 261.182 409.73 260.727C410.207 260.273 410.571 259.716 410.821 259.057L417.537 259.5C417.196 261.114 416.497 262.523 415.44 263.727C414.395 264.92 413.043 265.852 411.384 266.523C409.736 267.182 407.832 267.511 405.673 267.511ZM436.355 240.818V246.273H420.588V240.818H436.355ZM424.168 234.545H431.429V258.955C431.429 259.625 431.531 260.148 431.736 260.523C431.94 260.886 432.224 261.142 432.588 261.29C432.963 261.437 433.395 261.511 433.884 261.511C434.224 261.511 434.565 261.483 434.906 261.426C435.247 261.358 435.509 261.307 435.69 261.273L436.832 266.676C436.469 266.79 435.957 266.92 435.298 267.068C434.639 267.227 433.838 267.324 432.895 267.358C431.145 267.426 429.611 267.193 428.293 266.659C426.986 266.125 425.969 265.295 425.241 264.17C424.514 263.045 424.156 261.625 424.168 259.909V234.545Z" fill="#CE2127"/>
<path d="M133.25 272.246V278.286C133.25 279.612 132.792 280.729 131.877 281.637C130.962 282.546 129.848 283 128.537 283C127.226 283 126.1 282.546 125.16 281.637C124.22 280.729 123.75 279.612 123.75 278.286V273.571H76.25V278.286C76.25 279.612 75.7923 280.729 74.877 281.637C73.9616 282.546 72.8483 283 71.5371 283C70.2259 283 69.1003 282.546 68.1602 281.637C67.2201 280.729 66.75 279.612 66.75 278.286V272.246C65.3151 271.411 64.1647 270.281 63.2988 268.857C62.4329 267.433 62 265.862 62 264.143V250C62 248.625 62.569 247.041 63.707 245.249C64.8451 243.456 66.2799 241.75 68.0117 240.129L71.5 226.429C71.5 223.826 72.4277 221.604 74.2832 219.762C76.1387 217.921 78.3776 217 81 217H119C121.622 217 123.861 217.921 125.717 219.762C127.572 221.604 128.5 223.826 128.5 226.429L131.988 240.129C133.72 241.75 135.155 243.456 136.293 245.249C137.431 247.041 138 248.625 138 250V264.143C138 265.862 137.567 267.433 136.701 268.857C135.835 270.281 134.685 271.411 133.25 272.246ZM71.5 259.465C71.5 260.767 71.9577 261.872 72.873 262.78C73.7884 263.689 74.9017 264.143 76.2129 264.143C77.5241 264.143 78.6497 263.689 79.5898 262.78C80.5299 261.872 81 260.767 81 259.465C81 258.164 80.5299 257.047 79.5898 256.114C78.6497 255.181 77.5241 254.714 76.2129 254.714C74.9017 254.714 73.7884 255.181 72.873 256.114C71.9577 257.047 71.5 258.164 71.5 259.465ZM121.375 231.143C121.375 229.866 120.917 228.761 120.002 227.828C119.087 226.895 117.961 226.429 116.625 226.429H83.375C82.0885 226.429 80.9753 226.895 80.0352 227.828C79.0951 228.761 78.625 229.866 78.625 231.143L76.25 240.571C76.25 241.897 76.7077 243.015 77.623 243.923C78.5384 244.831 79.6641 245.286 81 245.286H119C120.336 245.286 121.462 244.831 122.377 243.923C123.292 243.015 123.75 241.897 123.75 240.571L121.375 231.143ZM123.787 254.714C122.476 254.714 121.35 255.181 120.41 256.114C119.47 257.047 119 258.164 119 259.465C119 260.767 119.47 261.872 120.41 262.78C121.35 263.689 122.476 264.143 123.787 264.143C125.098 264.143 126.212 263.689 127.127 262.78C128.042 261.872 128.5 260.767 128.5 259.465C128.5 258.164 128.042 257.047 127.127 256.114C126.212 255.181 125.098 254.714 123.787 254.714Z" fill="black"/>
</svg>
